<?xml version="1.0" ?><svg viewBox="0 0 512 512" xmlns="http://www.w3.org/2000/svg"><title/><g id="Pizza"><path d="M503.91,215.6719a52.9187,52.9187,0,0,0-15.6794-37.66C389.0955,62.3217,253.12,39.41,250.96,39.06a.078.078,0,0,0-.03-.01v.01a53.0972,53.0972,0,0,0-61.9316,73.9028L188.21,114.18a92.448,92.448,0,0,1-17.99,20.62c-15.51,13.21-43.82,37.14-69.29,58.63-1.48-.12-3.01-.18-4.55-.18-18.83,0-34.1,8.96-34.1,20,0,.0231.0036.0458.0037.0689v8.25a12.1582,12.1582,0,0,0,.6553,3.9075C54.0034,233.0106,48.2932,237.8224,48.07,238.01c-.16.14-.33.29-.49.44a125.81,125.81,0,0,0-31.1,135.62l25.19,67.08c.05.12.1.24.15.37,2.1,5.05,7.55,20.57,7.51,31.37v8.47a17.7558,17.7558,0,0,0,16.96,17.75c.18.01.35.01.53.01a17.5086,17.5086,0,0,0,17.49-17.49V459.363a12.3479,12.3479,0,0,0,.5393-1.3213l14.8874-44.318a72.8329,72.8329,0,0,1,47.0769-46.2492l61.3782-19.4189a27.8841,27.8841,0,0,1,5.978,8.4644c4.43,9.25,5.21,20.35,5.34,24.84v62.13a17.7665,17.7665,0,0,0,16.97,17.76c.17.01.35.01.53.01a17.515,17.515,0,0,0,17.49-17.49V391.43a17.39,17.39,0,0,0,11.06,3.95,17.1421,17.1421,0,0,0,2.26-.14,17.648,17.648,0,0,0,15.23-17.57V336.89a61.6426,61.6426,0,0,1,2.03-13.15l147.771-46.7436,27.0425-9.0123-.023-.0086A53.0936,53.0936,0,0,0,503.91,215.6719Zm-16.5923-38.5208c-.3322-.3151-.6614-.6337-1.0019-.94C486.656,176.5182,486.9858,176.8354,487.3176,177.1511ZM212.72,75.47a63.4122,63.4122,0,0,1,6.78-9.99,36.742,36.742,0,0,1,9.81-6.87,43.4021,43.4021,0,0,1,5.49-2.21c.94-.3,5.63-1.4,6.1-1.45a6.8962,6.8962,0,1,1,1.08,13.75c-.13,0-3.09.31-3.74.44a30.5907,30.5907,0,0,0-4,1.06,25.13,25.13,0,0,0-7.12,3.76,20.3428,20.3428,0,0,0-5.21,5.95,25.6569,25.6569,0,0,0-2.82,7.91l-.02.1a4.5083,4.5083,0,0,1-8.93-1.12A35.309,35.309,0,0,1,212.72,75.47Zm-1.32,27.2a6.9092,6.9092,0,1,1-5.42,8.13A6.9134,6.9134,0,0,1,211.4,102.67ZM76.82,206.87a35.8918,35.8918,0,0,1,13.16-4.19,47.8355,47.8355,0,0,1,16.32.61,33.1454,33.1454,0,0,1,9.64,3.58c3.42,2.01,5.54,4.45,5.54,6.38s-2.12,4.38-5.54,6.38c-5.01,2.94-12.13,4.62-19.56,4.62a45.39,45.39,0,0,1-12.82-1.78,29.7624,29.7624,0,0,1-6.74-2.84,17.3451,17.3451,0,0,1-3.65-2.78,5.6277,5.6277,0,0,1-1.89-3.6C71.28,211.32,73.41,208.88,76.82,206.87Zm195.23,170.8a6.6357,6.6357,0,0,1-5.63,6.66,6.2888,6.2888,0,0,1-.86.05,6.4806,6.4806,0,0,1-6.48-6.49V331.96s-.9568-7.0592-4.8375-9.5267a5.2328,5.2328,0,0,0-2.8659-.8435l-.0037,0h-.003c-3.0013,0-4.9285,3.484-6.1251,7.1268a44.6627,44.6627,0,0,0-1.7483,8.1775l.0034-.0011V443.77a6.4955,6.4955,0,0,1-6.49,6.49h-.2a6.6807,6.6807,0,0,1-6.3-6.77V381.21c-.31-12-4.03-49.88-38.33-49.88a58.8219,58.8219,0,0,0-13.17,1.62l-46.3,15.09a78.2434,78.2434,0,0,0-49.56,48.5l-4.43,12.64a112.3291,112.3291,0,0,0-5.41,33.95v38.5a6.4829,6.4829,0,0,1-6.49,6.49h-.2a6.6769,6.6769,0,0,1-6.29-6.76v-8.43c.05-15.47-8.36-35.65-8.36-35.65L26.78,370.2A115.03,115.03,0,0,1,55.16,246.42s5.655-4.77,14.6325-12.3367c6.25,4.5621,15.8355,7.4852,26.59,7.4852,18.8324,0,34.099-8.9539,34.099-19.9991v-8.3182q0,.5239-.0459,1.0239.0438-.5093.0442-1.0251c0-7.13-6.36-13.38-15.93-16.92,23.61-19.94,48.52-41,62.8-53.15a104.14,104.14,0,0,0,18.0385-19.9279A53.3105,53.3105,0,0,0,213.81,138.06q7.2,2.085,14.45,4.6c87.64,30.28,178.29,103.21,179.7,104.35-.0457-.0624-.0865-.1287-.1319-.1913a53.3875,53.3875,0,0,0,8.149,8.9022L404.3,259.46l-38.51,12.56-67.92,22.16-.03.01-3.45,1.12c-22.32,8.71-22.34,41.58-22.34,41.58ZM406.0767,244.2465q.1515.237.3054.4728Q406.2279,244.4838,406.0767,244.2465ZM450.823,255.759A40.0878,40.0878,0,1,1,490.91,215.6719,40.0469,40.0469,0,0,1,450.823,255.759Z"/><path d="M301.1917,244.0484V235.73c0-11.0453-15.2667-19.9992-34.099-19.9992s-34.099,8.9539-34.099,19.9992c0,.0442.0051.0877.0056.1319-.0005-.0445-.0056-.0872-.0056-.1319v8.3182c0,11.0452,15.2666,19.9991,34.099,19.9991S301.1917,255.0936,301.1917,244.0484Zm-53.6575-14.6965c5.0071-2.9366,12.1358-4.6209,19.5585-4.6209s14.5513,1.6843,19.5584,4.6209c3.4175,2.0044,5.5406,4.4485,5.5406,6.3783s-2.1231,4.3738-5.5406,6.3782c-5.0071,2.9366-12.1358,4.6209-19.5584,4.6209s-14.5514-1.6843-19.5585-4.6209c-3.4175-2.0044-5.5405-4.4484-5.5405-6.3782S244.1167,231.3563,247.5342,229.3519Z"/><path d="M121.233,265.2855c-18.8324,0-34.099,8.9538-34.099,19.999v8.3183c0,11.0452,15.2666,19.9991,34.099,19.9991s34.099-8.9539,34.099-19.9991v-8.3183C155.332,274.2393,140.0654,265.2855,121.233,265.2855Zm-19.5584,13.6208c5.007-2.9366,12.1358-4.6208,19.5584-4.6208s14.5514,1.6842,19.5585,4.6208c3.4175,2.0044,5.54,4.4484,5.54,6.3782s-2.123,4.3739-5.54,6.3783c-5.0071,2.9366-12.1359,4.6209-19.5585,4.6209s-14.5514-1.6843-19.5584-4.6209c-3.4175-2.0044-5.5406-4.4484-5.5406-6.3783S98.2571,280.9107,101.6746,278.9063Z"/><path d="M238.4167,287.3866H213.0033a4.9264,4.9264,0,0,0,0,9.8528h25.4134a4.9264,4.9264,0,0,0,0-9.8528Z"/><path d="M225.6426,182.32c0-8.7444-11.2182-15.091-26.6738-15.091s-26.6749,6.3466-26.6749,15.091,11.2183,15.091,26.6749,15.091S225.6426,191.0646,225.6426,182.32Zm-26.6738,5.2382c-11.0085,0-16.63-4.0258-16.823-5.2285.1925-1.2225,5.8136-5.2478,16.823-5.2478,10.9824,0,16.6007,4.0046,16.82,5.2381C215.5685,183.5537,209.9492,187.5583,198.9688,187.5583Z"/><path d="M82.8545,332.3844a42.2777,42.2777,0,0,0-16.3428,7.0533,42.2881,42.2881,0,0,0-12.447,12.7245c-4.4847,7.6254-2.5479,12.5571-.9939,14.8183,2.1832,3.1772,5.8982,4.7359,10.4629,4.7354,5.7895,0,12.9443-2.508,20.0674-7.4017A42.2858,42.2858,0,0,0,96.0481,351.59c4.4836-7.6249,2.5478-12.5566.9939-14.8182S91.5767,330.932,82.8545,332.3844Zm-4.8322,23.809c-9.0763,6.2359-15.9848,6.1-16.8258,5.2155-.533-1.1166,1.8205-7.6167,10.8938-13.85,6.4727-4.4468,11.8466-5.6525,14.7034-5.6525a3.46,3.46,0,0,1,2.1265.4451C89.4377,343.4919,87.0737,349.9747,78.0223,356.1934Z"/><path d="M59.4469,307.1038c0-2.6716-4.6185-8.4775-10.3157-8.4775s-10.3156,5.8059-10.3156,8.4775,4.6185,4.8372,10.3156,4.8372S59.4469,309.7753,59.4469,307.1038Z"/><path d="M337.45,260.3382c5.6972,0,10.3156-2.1657,10.3156-4.8372s-4.6184-8.4774-10.3156-8.4774-10.3157,5.8058-10.3157,8.4774S331.7528,260.3382,337.45,260.3382Z"/><path d="M173.6038,236.5742c-5.6972,0-10.3157,5.8058-10.3157,8.4774s4.6185,4.8373,10.3157,4.8373,10.3156-2.1658,10.3156-4.8373S179.301,236.5742,173.6038,236.5742Z"/></g></svg>